<svg xmlns="http://www.w3.org/2000/svg" viewBox="0 0 430 470" role="img" aria-label="A seven by seven grid of cosine similarities between the day-of-week embeddings: weekdays are mutually similar in green, weekend days are opposed to every weekday in red">
  <text x="20" y="38" font-family="Inter,sans-serif" font-size="21" font-weight="600" fill="#321208">The seven days, 40 epochs in</text>
  <g stroke="#ffffff" stroke-width="1.5"><rect x="90" y="64" width="40" height="40" fill="#2D5C3C"></rect><rect x="130" y="64" width="40" height="40" fill="#2D5C3C"></rect><rect x="170" y="64" width="40" height="40" fill="#2D5C3C"></rect><rect x="210" y="64" width="40" height="40" fill="#2D5C3C"></rect><rect x="250" y="64" width="40" height="40" fill="#2D5C3C"></rect><rect x="290" y="64" width="40" height="40" fill="#BE3E24"></rect><rect x="330" y="64" width="40" height="40" fill="#BE3E24"></rect><rect x="90" y="104" width="40" height="40" fill="#2D5C3C"></rect><rect x="130" y="104" width="40" height="40" fill="#2D5C3C"></rect><rect x="170" y="104" width="40" height="40" fill="#2D5C3C"></rect><rect x="210" y="104" width="40" height="40" fill="#2D5C3C"></rect><rect x="250" y="104" width="40" height="40" fill="#2D5C3C"></rect><rect x="290" y="104" width="40" height="40" fill="#BE3E24"></rect><rect x="330" y="104" width="40" height="40" fill="#BE3E24"></rect><rect x="90" y="144" width="40" height="40" fill="#2D5C3C"></rect><rect x="130" y="144" width="40" height="40" fill="#2D5C3C"></rect><rect x="170" y="144" width="40" height="40" fill="#2D5C3C"></rect><rect x="210" y="144" width="40" height="40" fill="#2D5C3C"></rect><rect x="250" y="144" width="40" height="40" fill="#2D5C3C"></rect><rect x="290" y="144" width="40" height="40" fill="#BE3E24"></rect><rect x="330" y="144" width="40" height="40" fill="#BE3E24"></rect><rect x="90" y="184" width="40" height="40" fill="#2D5C3C"></rect><rect x="130" y="184" width="40" height="40" fill="#2D5C3C"></rect><rect x="170" y="184" width="40" height="40" fill="#2D5C3C"></rect><rect x="210" y="184" width="40" height="40" fill="#2D5C3C"></rect><rect x="250" y="184" width="40" height="40" fill="#2D5C3C"></rect><rect x="290" y="184" width="40" height="40" fill="#BE3E24"></rect><rect x="330" y="184" width="40" height="40" fill="#BE3E24"></rect><rect x="90" y="224" width="40" height="40" fill="#2D5C3C"></rect><rect x="130" y="224" width="40" height="40" fill="#2D5C3C"></rect><rect x="170" y="224" width="40" height="40" fill="#2D5C3C"></rect><rect x="210" y="224" width="40" height="40" fill="#2D5C3C"></rect><rect x="250" y="224" width="40" height="40" fill="#2D5C3C"></rect><rect x="290" y="224" width="40" height="40" fill="#BE3E24"></rect><rect x="330" y="224" width="40" height="40" fill="#BE3E24"></rect><rect x="90" y="264" width="40" height="40" fill="#BE3E24"></rect><rect x="130" y="264" width="40" height="40" fill="#BE3E24"></rect><rect x="170" y="264" width="40" height="40" fill="#BE3E24"></rect><rect x="210" y="264" width="40" height="40" fill="#BE3E24"></rect><rect x="250" y="264" width="40" height="40" fill="#BE3E24"></rect><rect x="290" y="264" width="40" height="40" fill="#2D5C3C"></rect><rect x="330" y="264" width="40" height="40" fill="#2D5C3C"></rect><rect x="90" y="304" width="40" height="40" fill="#BE3E24"></rect><rect x="130" y="304" width="40" height="40" fill="#BE3E24"></rect><rect x="170" y="304" width="40" height="40" fill="#BE3E24"></rect><rect x="210" y="304" width="40" height="40" fill="#BE3E24"></rect><rect x="250" y="304" width="40" height="40" fill="#BE3E24"></rect><rect x="290" y="304" width="40" height="40" fill="#2D5C3C"></rect><rect x="330" y="304" width="40" height="40" fill="#2D5C3C"></rect></g>
  <g font-family="Inter,sans-serif" font-size="18" fill="#57534E"><text x="78" y="90" text-anchor="end">Mon</text><text x="78" y="130" text-anchor="end">Tue</text><text x="78" y="170" text-anchor="end">Wed</text><text x="78" y="210" text-anchor="end">Thu</text><text x="78" y="250" text-anchor="end">Fri</text><text x="78" y="290" text-anchor="end">Sat</text><text x="78" y="330" text-anchor="end">Sun</text></g>
  <g font-family="Inter,sans-serif" font-size="17">
    <rect x="20" y="362" width="18" height="18" fill="#2D5C3C"></rect>
    <text x="48" y="377" fill="#57534E">green: the two behave alike</text>
    <rect x="20" y="392" width="18" height="18" fill="#BE3E24"></rect>
    <text x="48" y="407" fill="#57534E">red: the two move in opposition</text>
    <text x="20" y="442" font-weight="600" fill="#321208">Saturday and Sunday: +0.998</text>
    <text x="20" y="464" font-weight="600" fill="#321208">Every weekday to both: &#8722;0.78 to &#8722;0.98</text>
  </g>
</svg>
