<svg xmlns="http://www.w3.org/2000/svg" viewBox="0 0 430 560" role="img" aria-label="Horizontal bars on a log scale comparing one-hot, embedding and integer encodings at four cardinalities; one-hot explodes at five thousand shops">
  <text x="20" y="38" font-family="Inter,sans-serif" font-size="21" font-weight="600" fill="#321208">Validation error (log scale)</text>
  <line x1="181" y1="58" x2="181" y2="470" stroke="#BE3E24" stroke-dasharray="5 4"></line>
  <text x="173" y="52" font-family="Inter,sans-serif" font-size="16" text-anchor="end" fill="#BE3E24">predict the mean</text>
  <text x="20" y="76" font-family="Inter,sans-serif" font-size="18" font-weight="600" fill="#321208">50 shops</text><rect x="20" y="84" width="32" height="16" fill="#D4720A"></rect><text x="59" y="97" font-family="Inter,sans-serif" font-size="16" text-anchor="start" fill="#57534E">69</text><rect x="20" y="105" width="31" height="16" fill="#2D5C3C"></rect><text x="58" y="118" font-family="Inter,sans-serif" font-size="16" text-anchor="start" fill="#57534E">68</text><rect x="20" y="126" width="149" height="16" fill="#9AA0A6"></rect><text x="176" y="139" font-family="Inter,sans-serif" font-size="16" text-anchor="start" fill="#57534E">1,206</text><text x="20" y="176" font-family="Inter,sans-serif" font-size="18" font-weight="600" fill="#321208">200 shops</text><rect x="20" y="184" width="44" height="16" fill="#D4720A"></rect><text x="71" y="197" font-family="Inter,sans-serif" font-size="16" text-anchor="start" fill="#57534E">92</text><rect x="20" y="205" width="35" height="16" fill="#2D5C3C"></rect><text x="62" y="218" font-family="Inter,sans-serif" font-size="16" text-anchor="start" fill="#57534E">74</text><rect x="20" y="226" width="144" height="16" fill="#9AA0A6"></rect><text x="171" y="239" font-family="Inter,sans-serif" font-size="16" text-anchor="start" fill="#57534E">1,067</text><text x="20" y="276" font-family="Inter,sans-serif" font-size="18" font-weight="600" fill="#321208">500 shops</text><rect x="20" y="284" width="109" height="16" fill="#D4720A"></rect><text x="136" y="297" font-family="Inter,sans-serif" font-size="16" text-anchor="start" fill="#57534E">448</text><rect x="20" y="305" width="38" height="16" fill="#2D5C3C"></rect><text x="65" y="318" font-family="Inter,sans-serif" font-size="16" text-anchor="start" fill="#57534E">81</text><rect x="20" y="326" width="147" height="16" fill="#9AA0A6"></rect><text x="174" y="339" font-family="Inter,sans-serif" font-size="16" text-anchor="start" fill="#57534E">1,143</text><text x="20" y="376" font-family="Inter,sans-serif" font-size="18" font-weight="600" fill="#321208">5,000 shops</text><rect x="20" y="384" width="326" height="16" fill="#D4720A"></rect><text x="339" y="397" font-family="Inter,sans-serif" font-size="16" text-anchor="end" fill="#57534E">90,103</text><rect x="20" y="405" width="69" height="16" fill="#2D5C3C"></rect><text x="96" y="418" font-family="Inter,sans-serif" font-size="16" text-anchor="start" fill="#57534E">170</text><rect x="20" y="426" width="147" height="16" fill="#9AA0A6"></rect><text x="174" y="439" font-family="Inter,sans-serif" font-size="16" text-anchor="start" fill="#57534E">1,158</text>
  <g font-family="Inter,sans-serif" font-size="17" fill="#57534E">
    <rect x="20" y="492" width="18" height="18" fill="#D4720A"></rect><text x="48" y="507">one-hot columns</text>
    <rect x="20" y="520" width="18" height="18" fill="#2D5C3C"></rect><text x="48" y="535">embedding vectors</text>
    <rect x="216" y="520" width="18" height="18" fill="#9AA0A6"></rect><text x="244" y="535">integer code</text>
  </g>
</svg>
