<svg xmlns="http://www.w3.org/2000/svg" viewBox="0 0 430 300" width="430" height="300" font-family="Inter, Helvetica, Arial, sans-serif">
<rect x="0.5" y="0.5" width="429" height="299" rx="10" fill="#FFFFFF" stroke="#E8DCC4" stroke-width="1.5"/>
<text x="24" y="40" font-size="18" fill="#22201C" text-anchor="start" font-weight="600" font-style="normal">A model reading its own output</text>
<text x="24" y="62" font-size="14" fill="#6B6558" text-anchor="start" font-weight="400" font-style="normal">five generations, trained on the previous one</text>
<line x1="62" y1="244" x2="400" y2="244" stroke="#E8DCC4" stroke-width="1.5"/>
<line x1="62" y1="52" x2="62" y2="244" stroke="#E8DCC4" stroke-width="1.5"/>
<line x1="62" y1="240.7" x2="400" y2="240.7" stroke="#F1EBDD" stroke-width="1"/>
<text x="54" y="244.69906320403936" font-size="12" fill="#6B6558" text-anchor="end" font-weight="400" font-style="normal">100</text>
<line x1="62" y1="168.6" x2="400" y2="168.6" stroke="#F1EBDD" stroke-width="1"/>
<text x="54" y="172.5592505632315" font-size="12" fill="#6B6558" text-anchor="end" font-weight="400" font-style="normal">1,000</text>
<line x1="62" y1="96.4" x2="400" y2="96.4" stroke="#F1EBDD" stroke-width="1"/>
<text x="54" y="100.41943792242364" font-size="12" fill="#6B6558" text-anchor="end" font-weight="400" font-style="normal">10,000</text>
<text x="62.0" y="262" font-size="12" fill="#6B6558" text-anchor="middle" font-weight="400" font-style="normal">1</text>
<text x="146.5" y="262" font-size="12" fill="#6B6558" text-anchor="middle" font-weight="400" font-style="normal">2</text>
<text x="231.0" y="262" font-size="12" fill="#6B6558" text-anchor="middle" font-weight="400" font-style="normal">3</text>
<text x="315.5" y="262" font-size="12" fill="#6B6558" text-anchor="middle" font-weight="400" font-style="normal">4</text>
<text x="400.0" y="262" font-size="12" fill="#6B6558" text-anchor="middle" font-weight="400" font-style="normal">5</text>
<text x="231.0" y="284" font-size="13" fill="#6B6558" text-anchor="middle" font-weight="400" font-style="normal">generation</text>
<path d="M62.0 67.9 L146.5 134.2 L231.0 153.6 L315.5 171.6 L400.0 180.9" fill="none" stroke="#3E6E8E" stroke-width="2"/>
<circle cx="62.0" cy="67.9" r="3.4" fill="#3E6E8E"/>
<circle cx="146.5" cy="134.2" r="3.4" fill="#3E6E8E"/>
<circle cx="231.0" cy="153.6" r="3.4" fill="#3E6E8E"/>
<circle cx="315.5" cy="171.6" r="3.4" fill="#3E6E8E"/>
<circle cx="400.0" cy="180.9" r="3.4" fill="#3E6E8E"/>
<path d="M62.0 166.4 L146.5 180.8 L231.0 197.0 L315.5 203.8 L400.0 210.8" fill="none" stroke="#B8752A" stroke-width="2"/>
<circle cx="62.0" cy="166.4" r="3.4" fill="#B8752A"/>
<circle cx="146.5" cy="180.8" r="3.4" fill="#B8752A"/>
<circle cx="231.0" cy="197.0" r="3.4" fill="#B8752A"/>
<circle cx="315.5" cy="203.8" r="3.4" fill="#B8752A"/>
<circle cx="400.0" cy="210.8" r="3.4" fill="#B8752A"/>
<text x="394.0" y="168.91969352503014" font-size="13" fill="#3E6E8E" text-anchor="end" font-weight="600" font-style="normal">674</text>
<text x="404.0" y="228.7629636304958" font-size="13" fill="#B8752A" text-anchor="end" font-weight="600" font-style="normal">260</text>
<text x="68" y="83.87546090654592" font-size="13" fill="#3E6E8E" text-anchor="start" font-weight="600" font-style="normal">24,870</text>
<text x="72" y="156.4395103463413" font-size="13" fill="#B8752A" text-anchor="start" font-weight="600" font-style="normal">1,070</text>
</svg>
